<?xml version="1.0" encoding="utf-8"?>
<!-- Generator: Adobe Illustrator 26.0.1, SVG Export Plug-In . SVG Version: 6.00 Build 0)  -->
<svg version="1.1" xmlns="http://www.w3.org/2000/svg" xmlns:xlink="http://www.w3.org/1999/xlink" x="0px" y="0px"
	 viewBox="0 0 128 128" style="enable-background:new 0 0 128 128;" xml:space="preserve">
<style type="text/css">
	.st0{fill:#363D52;stroke:#212532;stroke-width:4;}
	.st1{fill:#478CBF;}
	.st2{fill:none;stroke:#FFFFFF;stroke-width:3;stroke-linejoin:round;stroke-miterlimit:10;}
	.st3{display:none;}
	.st4{display:inline;}
	.st5{fill:#FFFFFF;}
	.st6{fill:#414042;}
</style>
<g id="Layer_1">
	<path class="st0" d="M16,2h96c7.7,0,14,6.3,14,14v96c0,7.7-6.3,14-14,14H16c-7.7,0-14-6.3-14-14V16C2,8.3,8.3,2,16,2z"/>
</g>
<g id="Layer_3">
	<path class="st1" d="M96,48v16H80v16H64v16H48v16h16h16h16h0c8.8,0,16-7.2,16-16v0V80V64V48H96z"/>
	<path class="st1" d="M28,112L28,112c-6.6,0-12-5.4-12-12V76c0-6.6,5.4-12,12-12h0c6.6,0,12,5.4,12,12v24C40,106.6,34.6,112,28,112z
		"/>
	<polyline class="st2" points="112,48 96,48 96,64 80,64 80,80 64,80 64,96 48,96 48,112 	"/>
	<line class="st2" x1="48" y1="64" x2="96" y2="16"/>
	<polyline class="st2" points="80,16 96,16 96,32 	"/>
</g>
<g id="Layer_2" class="st3">
	<g transform="translate(12.322 12.322)scale(.101)" class="st4">
		<path class="st5" d="M104.7,673.2v33c271.3,236,542.7,236,814,0v-33H104.7z"/>
		<path class="st1" d="M104.7,673.2l152,14c8,0.7,13,5.3,15,14l4,67l132,10l8-61c1.3-7.3,6.3-12.3,15-15h162c8.7,2.7,13.7,7.7,15,15
			l8,61l132-10l4-67c2-8.7,7-13.3,15-14l152-14v-246c20-26,38.7-53,56-81c-23.3-39.3-51-75.3-83-108c-28.7,13.3-56,29-82,47
			c-26.7-24.7-56-46-88-64c4.7-34,7.3-68,8-102c-39.3-18.7-80.3-32.7-123-42c-17.3,28.7-32.7,58.3-46,89c-32.7-4.7-65.3-4.7-98,0
			c-13.3-30.7-28.7-60.3-46-89c-42.7,9.3-83.7,23.3-123,42c0.7,34,3.3,68,8,102c-32,18-61.3,39.3-88,64c-26-18-53.3-33.7-82-47
			c-32,32.7-59.7,68.7-83,108c17.3,28,36,55,56,81V673.2z M104.7,706.2v39c0,276,813,276,814,0v-39l-134,12l-5,69
			c-1.3,6.7-6,11-14,13l-162,11c-8,0-13.3-3.7-16-11l-10-65h-132l-10,65c-2.7,7.3-8,11-16,11l-162-11c-8-2-12.7-6.3-14-13l-5-69
			L104.7,706.2z"/>
		<path class="st5" d="M482.7,600.2c0,34,58,34,58,0v-86c0-34-58-34-58,0V600.2z"/>
		<circle class="st5" cx="724.7" cy="526.2" r="90"/>
		<circle class="st5" cx="298.7" cy="526.2" r="90"/>
	</g>
	<g transform="translate(12.322 12.322)scale(.101)" class="st4">
		<circle class="st6" cx="306.7" cy="532.2" r="60"/>
		<circle class="st6" cx="716.7" cy="532.2" r="60"/>
	</g>
</g>
<g id="Layer_2_copy">
	<g>
		<g transform="translate(12.322 12.322)scale(.101)">
			<path class="st1" d="M36.6,655.3l44.3,4.1c2.3,0.2,3.8,1.6,4.4,4.1l1.2,19.5l38.5,2.9l2.3-17.8c0.4-2.1,1.8-3.6,4.4-4.4h47.2
				c2.5,0.8,4,2.2,4.4,4.4l2.3,17.8L224,683l1.2-19.5c0.6-2.5,2-3.9,4.4-4.1l44.3-4.1v-71.7c5.8-7.6,11.3-15.5,16.3-23.6
				c-6.8-11.5-14.9-22-24.2-31.5c-8.4,3.9-16.3,8.5-23.9,13.7c-7.8-7.2-16.3-13.4-25.7-18.7c1.4-9.9,2.1-19.8,2.3-29.7
				c-11.5-5.4-23.4-9.5-35.9-12.2c-5.1,8.4-9.5,17-13.4,26c-9.5-1.4-19-1.4-28.6,0c-3.9-8.9-8.4-17.6-13.4-26
				c-12.4,2.7-24.4,6.8-35.9,12.2c0.2,9.9,1,19.8,2.3,29.7c-9.3,5.2-17.9,11.5-25.7,18.7c-7.6-5.2-15.6-9.8-23.9-13.7
				c-9.3,9.5-17.4,20-24.2,31.5c5.1,8.2,10.5,16,16.3,23.6V655.3z"/>
		</g>
		<g transform="translate(12.322 12.322)scale(.101)">
			<circle class="st6" cx="93.1" cy="614.2" r="26.9"/>
			<circle class="st6" cx="217.3" cy="614.2" r="26.9"/>
		</g>
	</g>
</g>
</svg>
